<mxfile host="Electron" agent="Mozilla/5.0 (Windows NT 10.0; Win64; x64) AppleWebKit/537.36 (KHTML, like Gecko) draw.io/27.0.2 Chrome/134.0.6998.205 Electron/35.3.0 Safari/537.36" version="27.0.2">
  <diagram name="Страница — 1" id="fVcJ7O7tC3VuVcqIO9m_">
    <mxGraphModel dx="1540" dy="899" grid="1" gridSize="10" guides="1" tooltips="1" connect="1" arrows="1" fold="1" page="1" pageScale="1" pageWidth="1169" pageHeight="827" math="0" shadow="0">
      <root>
        <mxCell id="0" />
        <mxCell id="1" parent="0" />
        <mxCell id="4I27Nu_oPrzyD-SU-KGY-5" style="edgeStyle=orthogonalEdgeStyle;rounded=0;orthogonalLoop=1;jettySize=auto;html=1;exitX=1;exitY=0.5;exitDx=0;exitDy=0;" parent="1" source="4I27Nu_oPrzyD-SU-KGY-3" target="4I27Nu_oPrzyD-SU-KGY-4" edge="1">
          <mxGeometry relative="1" as="geometry" />
        </mxCell>
        <mxCell id="4I27Nu_oPrzyD-SU-KGY-3" value="Пациент" style="html=1;dashed=0;whiteSpace=wrap;rounded=1;fillColor=#dae8fc;strokeColor=light-dark(#6483af, #334a6c);strokeWidth=2;shadow=1;" parent="1" vertex="1">
          <mxGeometry x="60" y="337.5" width="127" height="65" as="geometry" />
        </mxCell>
        <mxCell id="4I27Nu_oPrzyD-SU-KGY-8" style="edgeStyle=orthogonalEdgeStyle;rounded=0;orthogonalLoop=1;jettySize=auto;html=1;exitX=1;exitY=0.5;exitDx=0;exitDy=0;" parent="1" source="4I27Nu_oPrzyD-SU-KGY-4" target="4I27Nu_oPrzyD-SU-KGY-6" edge="1">
          <mxGeometry relative="1" as="geometry" />
        </mxCell>
        <mxCell id="QMklocCDjUwZSiccj3u5-2" style="edgeStyle=orthogonalEdgeStyle;rounded=0;orthogonalLoop=1;jettySize=auto;html=1;exitX=1;exitY=0.5;exitDx=0;exitDy=0;" parent="1" source="4I27Nu_oPrzyD-SU-KGY-4" target="QMklocCDjUwZSiccj3u5-1" edge="1">
          <mxGeometry relative="1" as="geometry" />
        </mxCell>
        <mxCell id="4I27Nu_oPrzyD-SU-KGY-4" value="Обработка и учет платежей" style="shape=ellipse;html=1;dashed=0;whiteSpace=wrap;aspect=fixed;perimeter=ellipsePerimeter;fillColor=#dae8fc;strokeColor=#6c8ebf;strokeWidth=2;" parent="1" vertex="1">
          <mxGeometry x="480" y="310" width="120" height="120" as="geometry" />
        </mxCell>
        <mxCell id="4I27Nu_oPrzyD-SU-KGY-6" value="Excel-файл" style="html=1;dashed=0;whiteSpace=wrap;shape=partialRectangle;right=0;left=0;fillColor=#dae8fc;strokeColor=#6c8ebf;strokeWidth=2;" parent="1" vertex="1">
          <mxGeometry x="790" y="310" width="130" height="30" as="geometry" />
        </mxCell>
        <mxCell id="4I27Nu_oPrzyD-SU-KGY-11" value="Данные о пациенте (Ф.И.О., телефон),&lt;div&gt;платежные данные&lt;br&gt;&lt;div&gt;&lt;br&gt;&lt;/div&gt;&lt;/div&gt;" style="text;html=1;align=center;verticalAlign=middle;whiteSpace=wrap;rounded=0;" parent="1" vertex="1">
          <mxGeometry x="200" y="330" width="260" height="40" as="geometry" />
        </mxCell>
        <mxCell id="QMklocCDjUwZSiccj3u5-1" value="1С" style="html=1;dashed=0;whiteSpace=wrap;shape=partialRectangle;right=0;left=0;fillColor=#dae8fc;strokeColor=#6c8ebf;strokeWidth=2;" parent="1" vertex="1">
          <mxGeometry x="790" y="420" width="130" height="30" as="geometry" />
        </mxCell>
        <mxCell id="H1tstf7ucm5fPkTmd7hs-1" value="&lt;div&gt;&lt;b&gt;Теги:&lt;/b&gt; PII - персональные данные, FIN - финансовые данные&lt;/div&gt;&lt;div&gt;&lt;b&gt;Способ защиты:&lt;/b&gt; Шифрование (AES-256/TLS)&lt;/div&gt;&lt;div&gt;&lt;b&gt;Меры обеспечения конфиденциальности:&lt;/b&gt;&lt;/div&gt;&lt;div&gt;&lt;span style=&quot;font-weight: bold; white-space: pre;&quot;&gt;&#x9;&lt;/span&gt;- Внедрение MFA + OAuth 2.0&lt;br&gt;&lt;/div&gt;&lt;div&gt;&lt;span style=&quot;white-space: pre;&quot;&gt;&#x9;&lt;/span&gt;-&amp;nbsp;&lt;span style=&quot;background-color: transparent; color: light-dark(rgb(0, 0, 0), rgb(255, 255, 255));&quot;&gt;Внедрение&lt;/span&gt;&lt;span style=&quot;background-color: transparent; color: light-dark(rgb(0, 0, 0), rgb(255, 255, 255));&quot;&gt;&amp;nbsp;&lt;/span&gt;&lt;span style=&quot;background-color: transparent; color: light-dark(rgb(0, 0, 0), rgb(255, 255, 255));&quot;&gt;RBAC + ABAC&lt;/span&gt;&lt;/div&gt;&lt;div&gt;&lt;span style=&quot;white-space: pre;&quot;&gt;&#x9;&lt;/span&gt;- Внедрение SIEM (Splunk)&lt;br&gt;&lt;/div&gt;&lt;div&gt;&lt;br&gt;&lt;/div&gt;" style="text;html=1;align=left;verticalAlign=top;whiteSpace=wrap;rounded=0;textShadow=0;labelBorderColor=none;labelBackgroundColor=none;fontSize=14;dashed=1;strokeColor=#A9C4EB;" vertex="1" parent="1">
          <mxGeometry x="380" y="460" width="330" height="120" as="geometry" />
        </mxCell>
      </root>
    </mxGraphModel>
  </diagram>
</mxfile>
